<svg xmlns="http://www.w3.org/2000/svg" xmlns:xlink="http://www.w3.org/1999/xlink" width="240" zoomAndPan="magnify" viewBox="0 0 180 89.999999" height="120" preserveAspectRatio="xMidYMid meet" version="1.0"><defs><clipPath id="113bbd4197"><path d="M 1 7 L 179 7 L 179 81 L 1 81 Z M 1 7 " clip-rule="nonzero"/></clipPath><clipPath id="47d594c936"><path d="M 10.523438 -22.503906 L 195.84375 18.269531 L 173.605469 119.351562 L -11.714844 78.582031 Z M 10.523438 -22.503906 " clip-rule="nonzero"/></clipPath><clipPath id="bbf0c8cc82"><path d="M 10.523438 -22.503906 L 195.84375 18.269531 L 173.605469 119.351562 L -11.714844 78.582031 Z M 10.523438 -22.503906 " clip-rule="nonzero"/></clipPath><clipPath id="404ef19b10"><path d="M 10.523438 -22.503906 L 195.84375 18.269531 L 173.605469 119.351562 L -11.714844 78.582031 Z M 10.523438 -22.503906 " clip-rule="nonzero"/></clipPath><clipPath id="12eec172e1"><path d="M 1 9 L 179 9 L 179 80 L 1 80 Z M 1 9 " clip-rule="nonzero"/></clipPath><clipPath id="85cd91d7b2"><path d="M 10.523438 -22.503906 L 195.84375 18.269531 L 173.605469 119.351562 L -11.714844 78.582031 Z M 10.523438 -22.503906 " clip-rule="nonzero"/></clipPath><clipPath id="751db7d122"><path d="M 10.523438 -22.503906 L 195.84375 18.269531 L 173.605469 119.351562 L -11.714844 78.582031 Z M 10.523438 -22.503906 " clip-rule="nonzero"/></clipPath><clipPath id="362cb4a858"><path d="M 10.523438 -22.503906 L 195.84375 18.269531 L 173.605469 119.351562 L -11.714844 78.582031 Z M 10.523438 -22.503906 " clip-rule="nonzero"/></clipPath></defs><g clip-path="url(#113bbd4197)"><g clip-path="url(#47d594c936)"><g clip-path="url(#bbf0c8cc82)"><g clip-path="url(#404ef19b10)"><path fill="#464646" d="M 133.730469 10.527344 C 132.703125 11.542969 131.007812 14.449219 130.789062 15.574219 C 130.683594 16.097656 131.152344 15.449219 131.824219 14.128906 C 133.003906 11.8125 134.578125 10.4375 135.464844 10.945312 C 136.6875 11.636719 137.207031 18.859375 136.65625 27.457031 C 136.207031 34.464844 135.570312 37.257812 133.933594 39.390625 C 132.289062 41.527344 128.992188 43.457031 125.523438 44.308594 C 124.015625 44.679688 122.660156 45.242188 122.507812 45.558594 C 122.0625 46.5 122.859375 48.863281 124.4375 51.261719 C 125.691406 53.175781 125.871094 53.722656 125.609375 54.898438 C 125.257812 56.503906 124.226562 58.023438 123.589844 57.882812 C 123.34375 57.828125 122.570312 56.589844 121.867188 55.132812 C 120.964844 53.269531 120.472656 52.613281 120.210938 52.925781 C 120.003906 53.167969 119.214844 55.328125 118.457031 57.722656 C 116.957031 62.464844 115.988281 64.363281 115.164062 64.179688 C 114.246094 63.980469 114.398438 62.929688 115.914062 58.984375 C 116.722656 56.882812 117.753906 53.992188 118.207031 52.566406 C 119.003906 50.039062 119.003906 49.902344 118.167969 47.460938 C 117.519531 45.558594 117.398438 44.542969 117.671875 43.289062 C 118.136719 41.179688 119.546875 39.914062 121.0625 40.246094 C 122.046875 40.464844 122.175781 40.347656 122.910156 38.613281 C 124.140625 35.707031 128.683594 21.980469 128.695312 21.136719 C 128.699219 20.722656 127.285156 24.613281 125.546875 29.78125 C 123.808594 34.949219 122.253906 39.265625 122.089844 39.371094 C 121.929688 39.480469 121.371094 39.53125 120.855469 39.488281 C 119.320312 39.363281 117.75 41.167969 117.195312 43.699219 C 116.933594 44.878906 116.851562 45.972656 117.011719 46.125 C 117.171875 46.28125 117.578125 47.257812 117.914062 48.296875 L 118.527344 50.183594 L 116.714844 55.3125 C 115.71875 58.128906 114.695312 61.351562 114.441406 62.46875 C 114.035156 64.242188 114.070312 64.539062 114.710938 64.777344 C 115.925781 65.234375 117.207031 63.140625 118.804688 58.097656 C 119.578125 55.648438 120.300781 53.675781 120.410156 53.710938 C 120.523438 53.75 121.199219 54.945312 121.917969 56.375 C 122.636719 57.804688 123.417969 58.90625 123.652344 58.820312 C 124.425781 58.550781 125.65625 56.453125 126.027344 54.773438 C 126.363281 53.246094 126.253906 52.90625 124.523438 50.117188 C 123.289062 48.121094 122.726562 46.808594 122.855469 46.226562 C 122.96875 45.703125 123.269531 45.390625 123.585938 45.460938 C 124.9375 45.757812 130.503906 43.371094 132.40625 41.671875 C 134.921875 39.429688 135.753906 37.699219 136.460938 33.234375 C 137.519531 26.535156 137.601562 13.65625 136.601562 11.414062 C 136.433594 11.039062 135.882812 10.523438 135.371094 10.273438 C 134.648438 9.914062 134.292969 9.96875 133.730469 10.527344 M 117.25 8.921875 C 116.242188 10.351562 115.976562 11.351562 116.902344 10.21875 C 118.164062 8.675781 118.691406 9.410156 118.386719 12.289062 C 117.996094 15.984375 113.570312 33.460938 110.101562 45.015625 C 109.015625 48.628906 109.285156 49.011719 111.949219 47.613281 C 114.441406 46.304688 114.960938 46.304688 115 47.617188 C 115.046875 49.195312 114.261719 50.089844 111.269531 51.878906 L 108.414062 53.585938 L 107.542969 57.542969 C 106.679688 61.476562 105.828125 63.292969 104.941406 63.097656 C 104.277344 62.949219 104.230469 62.003906 104.769531 59.554688 C 105.03125 58.363281 105.113281 57.257812 104.949219 57.097656 C 104.785156 56.941406 103.035156 58.597656 101.054688 60.78125 C 99.078125 62.964844 97.105469 65.070312 96.671875 65.457031 C 94.929688 67.023438 95.042969 64.894531 96.921875 60.75 C 98.121094 58.109375 98.566406 56.601562 97.734375 58.019531 C 96.789062 59.628906 95.199219 63.863281 95.042969 65.1875 C 94.921875 66.1875 95.058594 66.550781 95.582031 66.667969 C 96.085938 66.777344 97.03125 65.949219 98.953125 63.71875 C 100.421875 62.015625 102.359375 59.910156 103.261719 59.039062 L 104.898438 57.457031 L 104.375 58.773438 C 103.617188 60.671875 103.777344 63.617188 104.648438 63.808594 C 105.925781 64.089844 106.875 62.355469 107.839844 57.960938 L 108.734375 53.902344 L 110.371094 52.96875 C 114.914062 50.375 115.367188 49.878906 115.445312 47.355469 C 115.5 45.566406 114.714844 45.4375 112.222656 46.8125 L 110.246094 47.902344 L 110.738281 45.226562 C 111.011719 43.753906 112.308594 38.679688 113.628906 33.953125 C 116.867188 22.335938 119.632812 9.605469 119.128906 8.632812 C 118.578125 7.5625 118.160156 7.625 117.25 8.921875 M 115.796875 11.332031 C 115.734375 11.53125 114.769531 14.203125 113.652344 17.265625 C 110.226562 26.640625 109.816406 27.800781 109.171875 29.867188 C 108.832031 30.964844 109.144531 30.335938 109.871094 28.46875 C 110.601562 26.601562 111.574219 24.105469 112.035156 22.925781 C 114.113281 17.632812 116.074219 11.96875 115.996094 11.492188 C 115.949219 11.203125 115.859375 11.132812 115.796875 11.332031 M 132.585938 17.777344 C 132.222656 18.320312 131.714844 19.414062 131.457031 20.210938 C 131 21.625 131.011719 21.621094 131.839844 19.980469 C 132.308594 19.058594 132.863281 18.304688 133.070312 18.3125 C 133.75 18.328125 134.292969 25.570312 133.914062 29.589844 C 133.714844 31.730469 133.679688 33.269531 133.835938 33.011719 C 134.796875 31.429688 134.636719 20.117188 133.613281 17.671875 C 133.253906 16.800781 133.238281 16.804688 132.585938 17.777344 M 129.878906 17.34375 C 129.625 17.820312 129.320312 18.714844 129.207031 19.328125 C 129.011719 20.347656 129.054688 20.320312 129.660156 19.050781 C 130.421875 17.46875 130.613281 15.960938 129.878906 17.34375 M 143.089844 21.398438 C 142.476562 22.144531 141.859375 23.425781 141.644531 24.394531 C 141.105469 26.855469 136.625 40.46875 135.785156 42.203125 C 135.394531 43.011719 134.9375 44.394531 134.773438 45.277344 L 134.476562 46.886719 L 135.160156 45.09375 C 138.15625 37.25 141.1875 28.265625 141.832031 25.328125 C 142.324219 23.078125 143.28125 21.453125 144.019531 21.617188 C 144.871094 21.804688 144.421875 24.042969 142.386719 29.699219 C 139.90625 36.605469 138.460938 41.378906 140.375 36.34375 C 144.355469 25.882812 144.785156 24.523438 144.8125 22.363281 C 144.824219 21.195312 144.683594 20.210938 144.5 20.171875 C 144.3125 20.128906 143.679688 20.683594 143.089844 21.398438 M 98.003906 10.832031 C 95.8125 11.3125 95.257812 12.609375 92.691406 23.328125 C 91.476562 28.398438 90.121094 33.417969 89.679688 34.480469 C 89.238281 35.542969 88.542969 37.925781 88.132812 39.769531 C 87.722656 41.613281 86.792969 45.089844 86.066406 47.492188 C 83.117188 57.265625 82.152344 61.332031 82.570312 62.25 C 82.957031 63.109375 82.964844 63.109375 83.9375 62.5 C 85.371094 61.597656 86.273438 59.117188 90.375 44.753906 L 91.46875 40.917969 L 94.257812 41.460938 C 96.191406 41.839844 97.285156 41.871094 97.820312 41.566406 C 98.242188 41.324219 98.710938 41.152344 98.859375 41.183594 C 99.355469 41.292969 101.910156 39.347656 102.695312 38.257812 C 103.125 37.664062 103.546875 36.796875 103.636719 36.328125 C 103.734375 35.796875 103.460938 36.070312 102.902344 37.050781 C 101.589844 39.367188 99.21875 40.734375 96.570312 40.703125 C 95.390625 40.6875 93.734375 40.5625 92.890625 40.421875 L 91.355469 40.164062 L 90.632812 42.308594 C 90.234375 43.492188 89.078125 47.328125 88.058594 50.84375 C 85.53125 59.578125 85.023438 60.96875 84.085938 61.714844 C 82.542969 62.945312 82.632812 61.367188 84.46875 54.890625 C 85.375 51.683594 86.984375 45.839844 88.042969 41.910156 C 89.101562 37.980469 90.140625 34.453125 90.355469 34.074219 C 90.566406 33.691406 91.875 28.828125 93.257812 23.261719 C 95.433594 14.511719 95.890625 13.027344 96.640625 12.304688 C 99.011719 10.019531 100.820312 12.371094 102.597656 20.042969 C 104.003906 26.101562 104.585938 30.3125 104.398438 33.085938 L 104.261719 35.191406 L 104.652344 32.753906 C 105.328125 28.542969 102.933594 15.964844 100.640625 11.683594 C 100.113281 10.699219 99.5 10.503906 98.003906 10.832031 M 82.832031 7.648438 C 81.914062 7.800781 79.707031 11.03125 79.304688 12.816406 C 78.808594 14.996094 74.050781 29.121094 71.511719 35.945312 C 70.484375 38.703125 70.292969 39.242188 65.691406 52.519531 C 60.660156 67.042969 60.179688 68.859375 61.203125 69.535156 C 61.871094 69.972656 62.914062 69.039062 64.8125 66.308594 C 65.765625 64.941406 67.613281 62.59375 68.921875 61.089844 C 70.230469 59.585938 71.238281 58.257812 71.164062 58.140625 C 70.957031 57.820312 67.433594 61.925781 64.828125 65.523438 C 63.308594 67.625 62.292969 68.695312 61.832031 68.683594 C 60.660156 68.652344 62.425781 62.664062 68.539062 45.964844 C 69.621094 43 70.992188 39.109375 71.582031 37.320312 C 72.175781 35.527344 73.132812 32.769531 73.707031 31.1875 C 75.261719 26.933594 76.53125 23.214844 78.628906 16.742188 C 79.664062 13.554688 80.785156 10.539062 81.125 10.039062 C 81.773438 9.085938 82.855469 8.707031 83.230469 9.296875 C 83.894531 10.34375 82.96875 15.914062 79.609375 31.144531 C 77.652344 40.007812 76.140625 47.527344 76.253906 47.847656 C 76.414062 48.304688 76.902344 48.144531 78.425781 47.144531 C 81.796875 44.933594 82.390625 44.6875 82.644531 45.398438 C 82.769531 45.734375 82.730469 46.660156 82.558594 47.449219 C 82.285156 48.722656 81.945312 49.070312 79.621094 50.492188 C 75.917969 52.75 75.148438 53.765625 75.101562 56.464844 C 75.078125 57.636719 74.882812 59.40625 74.664062 60.402344 C 74.28125 62.144531 72.976562 64.214844 72.355469 64.078125 C 71.828125 63.964844 71.621094 62.117188 71.871094 59.734375 C 72.003906 58.464844 71.953125 57.390625 71.761719 57.351562 C 71.570312 57.308594 71.433594 57.582031 71.457031 57.960938 C 71.480469 58.339844 71.40625 59.589844 71.296875 60.742188 C 71.09375 62.847656 71.476562 64.664062 72.15625 64.8125 C 72.355469 64.855469 72.984375 64.425781 73.546875 63.855469 C 74.488281 62.902344 74.632812 62.445312 75.355469 58.121094 L 76.136719 53.421875 L 79.300781 51.351562 C 81.851562 49.675781 82.554688 49.011719 82.941406 47.898438 C 83.511719 46.273438 83.378906 44.378906 82.679688 44.226562 C 82.410156 44.164062 80.976562 44.855469 79.5 45.757812 L 76.808594 47.398438 L 76.953125 45.722656 C 77.03125 44.804688 78.019531 40.304688 79.148438 35.726562 C 81.386719 26.632812 84.160156 11.441406 84.003906 9.09375 C 83.910156 7.601562 83.816406 7.488281 82.832031 7.648438 M 129.976562 23.574219 C 129.601562 24.585938 129.359375 25.511719 129.433594 25.628906 C 129.507812 25.746094 129.871094 25.007812 130.242188 23.988281 C 130.609375 22.96875 130.855469 22.046875 130.785156 21.933594 C 130.714844 21.824219 130.347656 22.5625 129.976562 23.574219 M 171.128906 32.714844 C 170.671875 33.160156 170.082031 34.152344 169.820312 34.917969 C 169.339844 36.308594 169.34375 36.308594 170.183594 34.75 C 170.6875 33.820312 171.246094 33.234375 171.566406 33.304688 C 172.167969 33.4375 171.832031 35.46875 170.691406 38.546875 C 170.171875 39.949219 170.160156 40.117188 170.628906 39.3125 C 171.796875 37.300781 172.757812 33.628906 172.34375 32.730469 C 171.972656 31.925781 171.9375 31.921875 171.128906 32.714844 M 150.808594 30.472656 C 150.515625 30.816406 150.203125 31.484375 150.121094 31.960938 C 149.996094 32.652344 150.085938 32.601562 150.578125 31.699219 C 151.296875 30.375 151.367188 30.371094 152.386719 31.609375 C 153.3125 32.738281 154.105469 32.96875 155.246094 32.445312 C 156.28125 31.96875 157.28125 32.140625 157.527344 32.835938 C 157.625 33.121094 157.472656 34.355469 157.1875 35.574219 C 156.730469 37.527344 156.738281 37.644531 157.269531 36.566406 C 157.921875 35.234375 158.09375 33.5625 157.734375 32.101562 C 157.460938 31 156.308594 30.929688 155.070312 31.941406 C 154.332031 32.546875 154.246094 32.539062 153.738281 31.828125 C 153.4375 31.410156 152.777344 30.792969 152.265625 30.457031 C 151.488281 29.949219 151.253906 29.949219 150.808594 30.472656 M 71.082031 15.898438 C 69.335938 17.125 67.144531 18.777344 66.21875 19.570312 C 63.957031 21.507812 63.695312 21.5625 63.441406 20.171875 C 62.894531 17.207031 59.542969 19.640625 58.664062 23.636719 C 58.429688 24.695312 57.945312 25.910156 57.582031 26.339844 C 56.925781 27.117188 53.007812 30.488281 51.238281 31.796875 C 49.042969 33.421875 46.015625 37.0625 45.695312 38.46875 C 45.570312 39.007812 45.6875 39.875 45.949219 40.402344 C 46.652344 41.804688 48.019531 41.363281 50.421875 38.953125 C 51.503906 37.867188 53.378906 36.070312 54.585938 34.964844 C 56.652344 33.070312 56.789062 33.007812 56.855469 33.910156 C 56.921875 34.792969 56.941406 34.785156 57.09375 33.773438 C 57.433594 31.511719 56.628906 32.023438 50.9375 37.691406 C 47.589844 41.023438 45.589844 41.160156 46.671875 37.984375 C 47.277344 36.214844 49.09375 34.3125 54.128906 30.179688 C 58.164062 26.867188 58.941406 25.90625 59.449219 23.59375 C 60.28125 19.804688 62.671875 18.101562 62.886719 21.140625 C 62.9375 21.84375 63.070312 22.429688 63.183594 22.445312 C 63.296875 22.457031 64.546875 21.582031 65.960938 20.496094 C 67.371094 19.414062 69.8125 17.644531 71.378906 16.566406 C 74.496094 14.425781 75.023438 14.542969 74.441406 17.242188 C 74.109375 18.78125 72.25 20.457031 67.921875 23.121094 C 66.515625 23.984375 64.410156 25.617188 63.238281 26.75 L 61.109375 28.804688 L 59.507812 33.886719 C 58.625 36.679688 56.472656 44.980469 54.726562 52.328125 C 51.898438 64.21875 51.464844 65.742188 50.78125 66.175781 C 49.332031 67.101562 49.019531 65.894531 49.71875 62.074219 L 50.34375 58.65625 L 49.4375 62.40625 C 48.714844 65.398438 48.621094 66.300781 48.984375 66.867188 C 49.492188 67.65625 49.726562 67.761719 50.414062 67.496094 C 51.648438 67.019531 52.460938 64.515625 55.128906 52.996094 C 56.621094 46.554688 58.710938 38.480469 59.773438 35.050781 C 61.660156 28.964844 61.746094 28.78125 63.328125 27.304688 C 64.21875 26.472656 66.320312 24.917969 68.003906 23.855469 C 69.683594 22.789062 71.816406 21.273438 72.746094 20.488281 C 74.226562 19.238281 74.492188 18.796875 74.902344 16.941406 C 75.308594 15.089844 75.136719 13.816406 74.46875 13.703125 C 74.355469 13.683594 72.832031 14.671875 71.082031 15.898438 M 96.878906 19.550781 C 96.585938 20 95.515625 23.566406 94.507812 27.476562 C 92.890625 33.734375 92.726562 34.664062 93.148438 35.207031 C 94.417969 36.835938 98.960938 36.824219 100.636719 35.183594 C 101.863281 33.988281 101.929688 31.589844 100.871094 26.984375 C 99.972656 23.085938 98.402344 18.957031 97.757812 18.816406 C 97.566406 18.773438 97.171875 19.105469 96.878906 19.550781 M 97.011719 20.058594 C 96.820312 20.417969 95.871094 23.765625 94.902344 27.503906 L 93.144531 34.296875 L 94.667969 35.136719 C 96.328125 36.050781 96.925781 36.058594 99.398438 35.183594 C 100.984375 34.621094 101.03125 34.558594 101.164062 32.910156 C 101.363281 30.453125 99.449219 22.953125 97.988281 20.46875 C 97.40625 19.480469 97.34375 19.453125 97.011719 20.058594 M 163.992188 35.164062 C 163.796875 35.460938 163.605469 35.898438 163.566406 36.140625 C 163.527344 36.378906 163.726562 36.234375 164.011719 35.816406 C 165.257812 33.992188 165.75 36.058594 164.75 38.917969 C 164.367188 40.023438 164.328125 40.375 164.644531 39.9375 C 165.214844 39.144531 165.902344 36.464844 165.765625 35.554688 C 165.710938 35.207031 165.371094 34.855469 165.007812 34.773438 C 164.644531 34.695312 164.1875 34.871094 163.992188 35.164062 M 174.628906 38.96875 C 173.203125 41.171875 168.859375 52.15625 169.609375 51.671875 C 169.710938 51.605469 170.675781 49.199219 171.753906 46.328125 C 173.890625 40.636719 175.378906 37.832031 176.167969 38.007812 C 176.738281 38.132812 177.871094 39.875 177.75 40.433594 C 177.707031 40.632812 177.789062 40.71875 177.933594 40.628906 C 178.277344 40.40625 177.785156 38.683594 177.164062 37.949219 C 176.300781 36.921875 175.832031 37.113281 174.628906 38.96875 M 128.144531 28.800781 C 127.804688 29.792969 126.800781 32.617188 125.910156 35.078125 C 125.023438 37.535156 124.332031 39.792969 124.378906 40.09375 C 124.488281 40.824219 128.914062 39.582031 131.046875 38.21875 C 132.738281 37.136719 134.914062 33.835938 133.644531 34.28125 C 133.410156 34.359375 133.117188 34.902344 132.988281 35.484375 C 132.730469 36.667969 129.851562 38.5 127.347656 39.078125 C 126.578125 39.253906 125.808594 39.539062 125.640625 39.710938 C 125.476562 39.882812 125.199219 39.992188 125.027344 39.953125 C 124.683594 39.878906 124.957031 38.972656 127.3125 32.441406 C 128.175781 30.039062 128.855469 27.832031 128.824219 27.535156 C 128.789062 27.238281 128.484375 27.808594 128.144531 28.800781 M 168.910156 36.441406 C 168.867188 36.625 167.929688 38.945312 165.558594 44.738281 C 163.898438 48.785156 162.96875 51.714844 164.269531 48.78125 C 166.238281 44.351562 169.242188 36.746094 169.105469 36.535156 C 169.019531 36.398438 168.929688 36.359375 168.910156 36.441406 M 149.386719 33.367188 C 149.320312 33.671875 149.503906 34.417969 149.792969 35.023438 L 150.328125 36.121094 L 147.824219 39.398438 C 144.496094 43.75 142.011719 47.4375 141.867188 48.230469 C 141.804688 48.585938 142.121094 48.230469 142.570312 47.445312 C 143.019531 46.660156 145.054688 43.769531 147.089844 41.019531 L 150.792969 36.023438 L 150.152344 34.417969 C 149.796875 33.53125 149.453125 33.058594 149.386719 33.367188 M 112.703125 26.082031 C 112.554688 26.316406 111.808594 28.117188 111.046875 30.085938 C 107.046875 40.4375 104.074219 48.285156 103.203125 50.785156 C 102.667969 52.328125 101.984375 54.164062 101.683594 54.867188 C 101.257812 55.875 101.257812 56.136719 101.691406 56.082031 C 102.023438 56.042969 102.289062 55.605469 102.355469 54.992188 C 102.414062 54.433594 102.933594 52.730469 103.507812 51.210938 C 105.082031 47.046875 106.199219 44.0625 107.222656 41.277344 C 111.46875 29.738281 111.71875 29.664062 109.078125 40.710938 L 106.65625 50.847656 L 104.652344 52.886719 C 102.507812 55.066406 102.046875 56.085938 104.105469 54.089844 C 107.078125 51.210938 106.949219 51.5625 111.507812 33.582031 C 113.277344 26.601562 113.574219 24.738281 112.703125 26.082031 M 178 42.097656 C 178.089844 45.117188 178.234375 46.757812 178.371094 46.253906 C 178.566406 45.542969 178.394531 41.597656 178.152344 41.21875 C 178.050781 41.058594 177.980469 41.453125 178 42.097656 M 175.089844 42.242188 C 174.734375 42.710938 174.394531 43.386719 174.339844 43.738281 C 174.28125 44.085938 174.511719 43.863281 174.851562 43.234375 C 175.824219 41.445312 176.003906 42.011719 176.40625 48.152344 C 176.492188 49.46875 176.503906 49.453125 176.648438 47.816406 C 176.792969 46.121094 176.367188 42.410156 175.949219 41.734375 C 175.828125 41.539062 175.441406 41.769531 175.089844 42.242188 M 167.640625 45.105469 C 166.484375 47.632812 165.605469 49.808594 165.6875 49.9375 C 165.773438 50.070312 166.089844 49.558594 166.398438 48.804688 C 166.703125 48.046875 167.195312 46.960938 167.496094 46.386719 C 168.5 44.46875 169.988281 40.898438 169.863281 40.707031 C 169.796875 40.601562 168.796875 42.582031 167.640625 45.105469 M 156.523438 38.730469 C 156.488281 39.257812 156.523438 41.082031 156.597656 42.789062 C 156.804688 47.503906 155.089844 53.71875 152.148438 58.925781 C 151.933594 59.304688 152.152344 59.097656 152.632812 58.46875 C 155.417969 54.808594 157.515625 46.148438 156.917969 40.757812 C 156.738281 39.117188 156.558594 38.207031 156.523438 38.730469 M 152.265625 38.296875 C 150.339844 39.609375 143.21875 48.660156 143.613281 49.28125 C 143.679688 49.382812 144.359375 48.523438 145.125 47.367188 C 147.132812 44.324219 151.015625 39.664062 152.019531 39.09375 C 152.667969 38.722656 152.984375 38.730469 153.285156 39.117188 C 153.726562 39.683594 154.402344 42.707031 154.574219 44.902344 L 154.6875 46.285156 L 154.804688 44.757812 C 154.945312 42.984375 154.445312 40.195312 153.71875 38.695312 L 153.214844 37.644531 L 152.265625 38.296875 M 161.691406 41.421875 C 161.535156 42.132812 161.546875 42.441406 161.71875 42.105469 C 161.890625 41.769531 162.019531 41.1875 162.003906 40.808594 C 161.988281 40.433594 161.847656 40.707031 161.691406 41.421875 M 163.109375 42.757812 C 162.769531 43.683594 162.542969 44.527344 162.613281 44.632812 C 162.679688 44.742188 163.023438 44.082031 163.371094 43.167969 C 163.722656 42.253906 163.945312 41.410156 163.867188 41.289062 C 163.792969 41.167969 163.449219 41.832031 163.109375 42.757812 M 173.179688 46.179688 C 172.839844 47.121094 172.378906 48.371094 172.15625 48.964844 C 171.839844 49.796875 171.855469 49.886719 172.226562 49.367188 C 172.773438 48.605469 174.21875 44.566406 173.964844 44.507812 C 173.875 44.488281 173.523438 45.242188 173.179688 46.179688 M 77.980469 25.332031 C 77.253906 26.367188 70.140625 47.136719 68.046875 54.332031 C 67.433594 56.4375 67.339844 57.175781 67.6875 57.140625 C 67.945312 57.113281 69.402344 55.714844 70.921875 54.035156 L 73.683594 50.980469 L 74.195312 47.597656 C 74.476562 45.738281 75.5 40.546875 76.472656 36.066406 C 78.183594 28.164062 78.730469 24.269531 77.980469 25.332031 M 160.546875 43.898438 C 160.300781 44.371094 160.007812 45.261719 159.890625 45.878906 C 159.726562 46.769531 159.824219 46.671875 160.378906 45.402344 C 161.136719 43.660156 161.265625 42.507812 160.546875 43.898438 M 44.570312 18.398438 C 42.632812 19.023438 40.316406 22.628906 38.253906 28.238281 C 37.636719 29.917969 36.773438 32.175781 36.339844 33.253906 C 35.535156 35.242188 34.304688 38.707031 32.3125 44.59375 C 30.230469 50.742188 27.246094 63.238281 27.136719 66.273438 C 27.078125 67.800781 27.136719 69.242188 27.269531 69.472656 C 27.398438 69.707031 27.445312 70.167969 27.371094 70.503906 C 27.296875 70.839844 27.492188 71.472656 27.808594 71.914062 C 28.355469 72.683594 28.449219 72.671875 30.199219 71.628906 C 31.203125 71.03125 32.066406 70.351562 32.117188 70.121094 C 32.167969 69.894531 32.496094 69.554688 32.851562 69.375 C 33.203125 69.191406 34.285156 68.277344 35.257812 67.339844 C 36.230469 66.398438 37.65625 65.203125 38.425781 64.675781 C 39.824219 63.71875 42.355469 60.667969 42.574219 59.675781 C 42.789062 58.695312 41.726562 56.175781 41.03125 56.023438 C 40.628906 55.933594 39.410156 56.664062 38.070312 57.796875 C 36.816406 58.855469 35.042969 60.203125 34.128906 60.789062 C 33.210938 61.371094 32.335938 62.054688 32.183594 62.300781 C 31.472656 63.433594 31.453125 61.65625 32.128906 57.980469 C 32.964844 53.457031 32.355469 54.191406 36.984375 52.117188 C 40.410156 50.582031 42.136719 47.527344 41.015625 44.980469 C 40.691406 44.25 40.597656 44.234375 38.953125 44.660156 C 38.007812 44.910156 37.199219 45.253906 37.160156 45.433594 C 37.121094 45.609375 36.792969 45.800781 36.433594 45.855469 C 35.847656 45.945312 35.875 45.640625 36.714844 42.949219 C 38.445312 37.390625 42.867188 26.378906 43.71875 25.5 C 44.367188 24.832031 45.691406 27.613281 45.683594 29.621094 C 45.664062 33.492188 47.066406 34.046875 49.238281 31.027344 C 50.296875 29.550781 50.472656 29.050781 50.480469 27.492188 C 50.492188 25.292969 49.609375 22.242188 48.363281 20.15625 C 47.398438 18.550781 46.046875 17.925781 44.570312 18.398438 M 108.082031 32.132812 C 108.046875 32.292969 107.007812 34.996094 105.773438 38.144531 C 104.539062 41.292969 103.550781 44.066406 103.582031 44.3125 C 103.613281 44.558594 103.886719 44.113281 104.191406 43.328125 C 104.5 42.542969 105.59375 39.757812 106.621094 37.140625 C 107.652344 34.527344 108.417969 32.261719 108.320312 32.113281 C 108.226562 31.964844 108.117188 31.972656 108.082031 32.132812 M 178.183594 48.15625 C 178.183594 48.6875 177.933594 50.734375 177.636719 52.707031 C 177.191406 55.605469 176.925781 56.480469 176.230469 57.316406 C 175.070312 58.710938 173.257812 59.414062 170.5625 59.519531 C 168.054688 59.613281 167.523438 59.929688 167.542969 61.3125 C 167.566406 62.6875 169.03125 68.394531 169.261719 68.003906 C 169.371094 67.824219 169.125 66.402344 168.714844 64.84375 C 168.300781 63.289062 168.011719 61.597656 168.066406 61.089844 C 168.152344 60.265625 168.355469 60.167969 169.878906 60.234375 C 172.167969 60.328125 175.105469 59.242188 176.339844 57.84375 C 177.203125 56.859375 177.425781 56.191406 177.964844 52.960938 C 178.308594 50.898438 178.5 48.757812 178.386719 48.199219 L 178.183594 47.183594 L 178.183594 48.15625 M 43.917969 19.683594 C 41.546875 21.316406 40.875 22.628906 36.832031 33.554688 C 32.550781 45.132812 31.910156 47.28125 29.652344 57.597656 C 27.878906 65.707031 27.511719 67.898438 27.710938 69.203125 C 28.101562 71.734375 28.980469 71.75 31.992188 69.292969 C 33.394531 68.148438 35.035156 66.699219 35.636719 66.070312 C 36.238281 65.441406 37.167969 64.683594 37.699219 64.386719 C 39.363281 63.460938 41.488281 61.082031 41.761719 59.839844 C 41.90625 59.1875 41.792969 58.203125 41.515625 57.648438 L 41.011719 56.636719 L 39.699219 57.511719 C 38.980469 57.992188 36.820312 59.570312 34.90625 61.019531 C 30.523438 64.328125 30.328125 64.128906 31.722656 57.785156 C 32.578125 53.90625 32.789062 53.347656 33.589844 52.832031 C 34.085938 52.515625 34.628906 52.285156 34.796875 52.324219 C 34.960938 52.359375 36.242188 51.714844 37.636719 50.894531 C 39.910156 49.554688 40.207031 49.246094 40.5 47.910156 C 40.679688 47.09375 40.660156 46.046875 40.460938 45.589844 C 40.097656 44.765625 40.078125 44.761719 39.054688 45.351562 C 37.558594 46.21875 35.414062 46.707031 35.246094 46.222656 C 34.882812 45.195312 41.601562 27.679688 43.140625 25.628906 C 44.460938 23.871094 46.035156 25.65625 46.199219 29.097656 C 46.351562 32.296875 46.890625 32.785156 48.488281 31.171875 C 50.113281 29.523438 50.328125 26.460938 49.039062 23.246094 C 47.414062 19.179688 46.039062 18.222656 43.917969 19.683594 M 138.476562 40.972656 C 138.320312 41.683594 138.332031 41.992188 138.503906 41.65625 C 138.675781 41.320312 138.804688 40.738281 138.789062 40.363281 C 138.773438 39.984375 138.632812 40.257812 138.476562 40.972656 M 161.792969 46.296875 C 161.617188 47.109375 161.628906 47.417969 161.820312 46.976562 C 162.011719 46.535156 162.152344 45.867188 162.136719 45.492188 C 162.125 45.121094 161.96875 45.480469 161.792969 46.296875 M 76.484375 30.4375 C 76.050781 31.730469 74.988281 34.816406 74.125 37.296875 C 71.292969 45.425781 68.808594 53.265625 68.621094 54.660156 L 68.4375 56.03125 L 72.460938 51.875 L 74.742188 41.507812 C 75.996094 35.804688 77.078125 30.453125 77.148438 29.613281 C 77.265625 28.183594 77.226562 28.234375 76.484375 30.4375 M 175.957031 52.4375 L 175.335938 54.941406 L 173.601562 55.308594 C 172.648438 55.511719 171.472656 55.59375 170.988281 55.492188 C 170.117188 55.308594 170.117188 55.261719 170.902344 52.667969 L 171.703125 50.027344 L 170.582031 52.660156 C 169.964844 54.105469 169.523438 55.464844 169.597656 55.679688 C 169.773438 56.175781 172 56.253906 173.832031 55.828125 C 175.449219 55.453125 175.851562 54.820312 176.273438 51.984375 C 176.574219 49.988281 176.5625 50 175.957031 52.4375 M 137.101562 44.164062 C 136.730469 45.175781 136.488281 46.105469 136.566406 46.230469 C 136.648438 46.355469 137.019531 45.628906 137.390625 44.617188 C 137.765625 43.601562 138.003906 42.671875 137.925781 42.546875 C 137.847656 42.425781 137.476562 43.152344 137.101562 44.164062 M 154.203125 48.894531 C 153.847656 50.3125 153.328125 52.121094 153.046875 52.914062 L 152.542969 54.355469 L 153.195312 53.214844 C 153.554688 52.589844 154.074219 50.785156 154.351562 49.199219 L 154.851562 46.320312 L 154.203125 48.894531 M 158.917969 48.769531 C 158.742188 49.585938 158.753906 49.890625 158.945312 49.449219 C 159.132812 49.007812 159.277344 48.339844 159.261719 47.964844 C 159.25 47.59375 159.09375 47.953125 158.917969 48.769531 M 160.371094 49.671875 C 160.042969 50.480469 159.839844 51.246094 159.917969 51.371094 C 160 51.496094 160.332031 50.933594 160.660156 50.121094 C 160.988281 49.3125 161.191406 48.546875 161.109375 48.421875 C 161.03125 48.296875 160.699219 48.859375 160.371094 49.671875 M 164.628906 51.601562 C 164.328125 52.3125 164.136719 52.984375 164.207031 53.097656 C 164.277344 53.207031 164.582031 52.714844 164.886719 52 C 165.191406 51.289062 165.378906 50.617188 165.308594 50.503906 C 165.238281 50.394531 164.933594 50.886719 164.628906 51.601562 M 162.019531 52.996094 C 161.324219 54.460938 160.8125 55.753906 160.890625 55.871094 C 160.964844 55.992188 161.589844 54.878906 162.28125 53.398438 C 162.96875 51.921875 163.476562 50.628906 163.410156 50.523438 C 163.34375 50.421875 162.71875 51.53125 162.019531 52.996094 M 168.730469 53.0625 C 168.378906 54.050781 168.117188 54.285156 167.507812 54.152344 C 165.105469 53.625 163.289062 57.480469 164.285156 61.003906 C 164.429688 61.519531 164.507812 62.742188 164.460938 63.71875 C 164.390625 65.191406 164.425781 65.292969 164.679688 64.316406 C 164.847656 63.667969 164.835938 62.101562 164.65625 60.835938 C 164.292969 58.285156 164.527344 56.863281 165.558594 55.386719 C 166.113281 54.589844 166.398438 54.480469 167.054688 54.804688 C 168.035156 55.292969 168.972656 54.386719 169.097656 52.832031 C 169.171875 51.90625 169.136719 51.925781 168.730469 53.0625 M 159.167969 52.898438 C 159.011719 53.613281 159.023438 53.921875 159.195312 53.585938 C 159.367188 53.25 159.492188 52.664062 159.480469 52.289062 C 159.464844 51.910156 159.324219 52.1875 159.167969 52.898438 M 26.195312 24.03125 C 24.625 25.234375 23.890625 26.707031 22.617188 31.203125 C 20.992188 36.949219 19.46875 40.261719 16.945312 43.535156 C 13.945312 47.433594 12.519531 45.324219 12.160156 36.433594 C 12.082031 34.582031 11.945312 32.847656 11.851562 32.582031 C 11.535156 31.679688 10.175781 31.761719 8.582031 32.78125 C 7.03125 33.769531 6.988281 33.847656 6.777344 35.972656 C 6.660156 37.171875 6.601562 38.6875 6.648438 39.335938 C 6.695312 39.988281 5.984375 44.808594 5.070312 50.054688 C 3.363281 59.859375 1.9375 68.75 1.433594 72.738281 C 1.101562 75.34375 1.675781 77.0625 2.964844 77.34375 C 3.730469 77.515625 3.980469 77.246094 5.050781 75.132812 C 5.722656 73.808594 6.21875 72.585938 6.160156 72.414062 C 5.996094 71.949219 7.78125 58.535156 8.65625 53.621094 L 9.414062 49.382812 L 10.871094 50.730469 L 12.332031 52.082031 L 13.90625 51.667969 C 15.6875 51.199219 17.070312 50.3125 18.246094 48.886719 L 19.050781 47.90625 L 18.707031 50.539062 C 18 55.996094 17.546875 60.789062 17.648438 61.75 C 17.707031 62.296875 17.605469 63.933594 17.425781 65.386719 C 16.820312 70.195312 17.425781 77.9375 18.515625 79.296875 C 19.105469 80.03125 20.636719 79.679688 21.308594 78.648438 C 22.519531 76.804688 22.769531 74.09375 22.011719 71.03125 C 21.613281 69.433594 21.265625 66.558594 21.230469 64.644531 C 21.140625 59.105469 21.0625 58.484375 20.753906 60.78125 C 20.320312 64.023438 20.550781 67.820312 21.394531 71.320312 C 22.253906 74.871094 22.121094 76.476562 20.855469 78 C 19.824219 79.238281 19.515625 79.144531 18.683594 77.355469 C 17.46875 74.746094 17.503906 68.042969 18.792969 55.59375 C 19.667969 47.175781 19.675781 47.054688 19.355469 46.984375 C 19.191406 46.949219 18.742188 47.363281 18.363281 47.90625 C 17.984375 48.453125 16.839844 49.421875 15.820312 50.066406 C 13.605469 51.46875 12.265625 51.328125 10.746094 49.535156 C 10.175781 48.863281 9.5 48.386719 9.238281 48.480469 C 8.738281 48.65625 7.660156 54.542969 7.0625 60.390625 C 6.894531 62.0625 6.515625 64.902344 6.226562 66.707031 C 5.9375 68.507812 5.628906 70.808594 5.542969 71.8125 C 5.347656 74.140625 4.007812 76.214844 2.867188 75.964844 C 2.40625 75.863281 2.046875 75.433594 1.972656 74.894531 C 1.851562 74.042969 2.960938 66.179688 4.480469 57.105469 C 4.859375 54.839844 5.371094 51.722656 5.617188 50.171875 C 5.859375 48.625 6.289062 45.925781 6.566406 44.171875 C 6.847656 42.417969 7.210938 39.398438 7.382812 37.460938 C 7.6875 33.976562 7.699219 33.933594 8.78125 33.191406 C 10.738281 31.855469 11.328125 32.546875 11.425781 36.3125 C 11.546875 40.886719 12.191406 44.226562 13.171875 45.359375 C 13.953125 46.261719 14.054688 46.289062 15.078125 45.902344 C 17.761719 44.882812 21.824219 37.382812 23.292969 30.742188 C 24.253906 26.394531 26.4375 23.410156 28.121094 24.140625 C 29.007812 24.523438 28.34375 27.308594 25.742188 34.121094 C 23.359375 40.351562 22.035156 46.003906 21.277344 53.203125 C 20.679688 58.847656 20.863281 60.664062 21.519531 55.613281 C 22.238281 50.097656 24.042969 40.542969 24.757812 38.46875 C 25.136719 37.378906 26.207031 34.339844 27.140625 31.71875 C 28.074219 29.097656 28.941406 26.234375 29.070312 25.351562 C 29.273438 23.9375 29.191406 23.707031 28.359375 23.421875 C 27.664062 23.183594 27.085938 23.347656 26.195312 24.03125 M 133.367188 48.777344 C 132.996094 49.789062 132.753906 50.71875 132.832031 50.84375 C 132.914062 50.96875 133.285156 50.242188 133.65625 49.226562 C 134.03125 48.214844 134.269531 47.285156 134.191406 47.160156 C 134.113281 47.035156 133.742188 47.765625 133.367188 48.777344 M 134.789062 50.5 C 134.097656 52.296875 133.574219 54.015625 133.625 54.320312 C 133.675781 54.621094 133.84375 54.339844 134.003906 53.691406 C 134.164062 53.042969 134.65625 51.71875 135.101562 50.746094 C 135.542969 49.773438 135.9375 48.582031 135.972656 48.101562 C 136.011719 47.621094 135.476562 48.699219 134.789062 50.5 M 163.296875 54.277344 C 163.070312 54.714844 162.824219 55.410156 162.75 55.824219 C 162.679688 56.234375 162.917969 55.953125 163.277344 55.199219 C 163.976562 53.742188 163.992188 52.933594 163.296875 54.277344 M 140.710938 50.042969 C 140.339844 50.644531 139.996094 51.40625 139.945312 51.738281 C 139.890625 52.066406 140.242188 51.652344 140.726562 50.8125 C 141.734375 49.054688 141.722656 48.402344 140.710938 50.042969 M 141.757812 52.269531 C 140.003906 55.363281 138.480469 60.546875 138.890625 62.027344 C 139.117188 62.828125 139.507812 63.152344 140.632812 63.476562 C 142.410156 63.988281 145.140625 62.90625 148.027344 60.546875 C 149.710938 59.171875 152.558594 55.457031 152.269531 55.011719 C 152.207031 54.914062 151.558594 55.769531 150.832031 56.917969 C 149.183594 59.507812 144.238281 62.929688 142.214844 62.878906 C 140.484375 62.835938 139.285156 61.960938 139.246094 60.71875 C 139.203125 59.183594 140.527344 55.355469 142.0625 52.585938 C 142.808594 51.238281 143.367188 50.054688 143.300781 49.949219 C 143.234375 49.847656 142.542969 50.890625 141.757812 52.269531 M 156.503906 54.820312 C 156.105469 55.9375 155.851562 56.957031 155.9375 57.09375 C 156.023438 57.226562 156.417969 56.421875 156.8125 55.308594 C 157.207031 54.191406 157.460938 53.171875 157.375 53.039062 C 157.292969 52.902344 156.898438 53.707031 156.503906 54.820312 M 158.3125 54.894531 C 158.183594 55.320312 157.867188 56.210938 157.609375 56.875 C 157.179688 57.980469 157.1875 58.011719 157.738281 57.257812 C 158.066406 56.804688 158.382812 55.910156 158.441406 55.277344 C 158.5 54.59375 158.449219 54.4375 158.3125 54.894531 M 159.851562 57.320312 C 159.570312 57.929688 159.40625 58.53125 159.484375 58.652344 C 159.566406 58.777344 159.859375 58.382812 160.140625 57.773438 C 160.421875 57.164062 160.589844 56.5625 160.507812 56.4375 C 160.429688 56.316406 160.132812 56.710938 159.851562 57.320312 M 161.652344 58.144531 C 161.332031 58.960938 161.125 59.71875 161.191406 59.828125 C 161.261719 59.9375 161.585938 59.359375 161.914062 58.550781 C 162.242188 57.738281 162.449219 56.980469 162.375 56.867188 C 162.300781 56.75 161.976562 57.324219 161.652344 58.144531 M 138.992188 53.410156 C 136.757812 58.445312 136.027344 61.265625 136.230469 64.066406 C 136.425781 66.75 137.554688 68.0625 139.777344 68.191406 C 142.484375 68.351562 149.636719 63.511719 151.425781 60.320312 C 151.636719 59.9375 151.210938 60.320312 150.480469 61.164062 C 148.730469 63.183594 143.980469 66.421875 141.675781 67.167969 C 137.03125 68.671875 135.371094 64.746094 137.746094 57.867188 C 138.324219 56.195312 139.03125 54.308594 139.3125 53.675781 C 139.597656 53.042969 139.738281 52.507812 139.625 52.480469 C 139.515625 52.457031 139.230469 52.875 138.992188 53.410156 M 132.082031 52.375 C 131.925781 53.089844 131.9375 53.398438 132.109375 53.0625 C 132.28125 52.726562 132.410156 52.140625 132.394531 51.765625 C 132.378906 51.386719 132.242188 51.664062 132.082031 52.375 M 102.316406 46.78125 C 101.96875 47.691406 101.746094 48.542969 101.824219 48.667969 C 101.90625 48.789062 102.257812 48.144531 102.605469 47.230469 C 102.957031 46.320312 103.175781 45.46875 103.097656 45.34375 C 103.015625 45.222656 102.667969 45.867188 102.316406 46.78125 M 155.15625 58.808594 C 154.980469 59.625 154.992188 59.933594 155.179688 59.492188 C 155.371094 59.050781 155.515625 58.382812 155.5 58.007812 C 155.484375 57.632812 155.328125 57.996094 155.15625 58.808594 M 54.832031 40.328125 C 52.667969 48.164062 50.617188 56.808594 51.195312 55.660156 C 51.816406 54.425781 56.492188 36.132812 56.199219 36.070312 C 56.101562 36.046875 55.484375 37.964844 54.832031 40.328125 M 158.152344 60.632812 C 157.6875 61.503906 157.375 62.320312 157.457031 62.449219 C 157.535156 62.574219 157.96875 61.945312 158.417969 61.046875 C 159.476562 58.925781 159.25 58.574219 158.152344 60.632812 M 156.425781 60.058594 C 156.269531 60.773438 156.28125 61.082031 156.453125 60.746094 C 156.625 60.410156 156.753906 59.828125 156.738281 59.449219 C 156.722656 59.074219 156.582031 59.347656 156.425781 60.058594 M 129.859375 57.722656 C 129.003906 59.898438 128.363281 61.773438 128.441406 61.890625 C 128.515625 62.011719 129.28125 60.332031 130.136719 58.160156 C 130.996094 55.988281 131.636719 54.113281 131.558594 53.992188 C 131.480469 53.871094 130.71875 55.550781 129.859375 57.722656 M 159.957031 62.339844 C 159.574219 63.398438 159.320312 64.363281 159.394531 64.480469 C 159.585938 64.78125 160.785156 61.566406 160.714844 60.929688 C 160.6875 60.644531 160.34375 61.277344 159.957031 62.339844 M 132.128906 57.308594 C 130.390625 61.78125 129.851562 63.53125 130.191406 63.605469 C 130.375 63.644531 131.117188 63.285156 131.835938 62.800781 C 133.839844 61.460938 134.332031 61.792969 133.621094 63.996094 C 133.113281 65.566406 132.734375 66.027344 131.03125 67.148438 C 129.933594 67.871094 128.484375 68.699219 127.8125 68.992188 C 125.808594 69.859375 125.785156 68.664062 127.714844 63.835938 C 128.074219 62.933594 128.078125 62.769531 127.714844 63.253906 C 126.929688 64.3125 125.839844 67.554688 125.839844 68.84375 C 125.839844 69.613281 126.066406 70.074219 126.496094 70.167969 C 127.300781 70.34375 132.523438 66.910156 133.335938 65.667969 C 134.089844 64.523438 134.742188 61.621094 134.335938 61.226562 C 134.167969 61.0625 133.238281 61.378906 132.273438 61.929688 L 130.519531 62.925781 L 131.039062 61.378906 C 131.324219 60.527344 131.96875 58.820312 132.46875 57.585938 C 132.96875 56.351562 133.308594 55.238281 133.226562 55.109375 C 133.144531 54.980469 132.648438 55.96875 132.128906 57.308594 M 153.910156 61.53125 C 153.027344 63.527344 151.152344 70.695312 151.023438 72.578125 C 150.878906 74.734375 151.539062 75.070312 152.980469 73.566406 L 153.980469 72.527344 L 153.476562 74.820312 C 153.183594 76.148438 153.128906 77.261719 153.34375 77.46875 C 153.8125 77.925781 154.96875 76.921875 155.140625 75.910156 C 155.253906 75.242188 155.210938 75.25 154.824219 75.984375 C 153.941406 77.640625 153.464844 76.992188 153.839844 74.652344 C 154.042969 73.402344 154.332031 72.410156 154.484375 72.441406 C 154.640625 72.476562 154.890625 71.878906 155.046875 71.113281 L 155.335938 69.71875 L 154.183594 71.40625 C 152.914062 73.265625 151.871094 74.117188 151.523438 73.582031 C 151.148438 72.992188 152.324219 67.246094 153.511719 63.875 C 154.644531 60.65625 154.859375 59.398438 153.910156 61.53125 M 100.417969 51.308594 C 99.03125 54.691406 98.167969 57.164062 98.429688 57.007812 C 98.78125 56.792969 101.640625 49.539062 101.476562 49.285156 C 101.398438 49.164062 100.921875 50.074219 100.417969 51.308594 M 155.371094 63.128906 C 155.195312 63.941406 155.207031 64.25 155.398438 63.808594 C 155.585938 63.367188 155.730469 62.699219 155.714844 62.324219 C 155.699219 61.949219 155.546875 62.3125 155.371094 63.128906 M 155.523438 65.355469 C 154.773438 66.757812 154.710938 66.796875 154.644531 65.878906 C 154.578125 64.957031 154.554688 64.96875 154.269531 66.089844 C 154.105469 66.746094 154.121094 67.316406 154.308594 67.359375 C 154.726562 67.449219 156.730469 64.46875 156.5 64.105469 C 156.40625 63.960938 155.96875 64.523438 155.523438 65.355469 M 158.621094 65.976562 C 158.464844 66.691406 158.476562 67 158.648438 66.664062 C 158.820312 66.328125 158.949219 65.746094 158.933594 65.367188 C 158.917969 64.988281 158.777344 65.265625 158.621094 65.976562 M 163.316406 66.632812 C 163.070312 67.105469 162.792969 67.914062 162.699219 68.425781 C 162.574219 69.097656 162.714844 68.972656 163.1875 67.980469 C 163.917969 66.457031 164.03125 65.25 163.316406 66.632812 M 165.0625 67.113281 C 164.863281 67.414062 164.710938 67.976562 164.726562 68.367188 C 164.746094 68.886719 164.824219 68.835938 165.023438 68.164062 C 165.207031 67.558594 165.460938 68.445312 165.785156 70.8125 C 166.273438 74.34375 166.285156 74.363281 167.082031 73.628906 C 167.527344 73.222656 167.921875 72.71875 167.960938 72.507812 C 168 72.296875 167.796875 72.382812 167.507812 72.695312 C 166.726562 73.546875 166.457031 73.019531 166.164062 70.058594 C 165.863281 67.039062 165.589844 66.3125 165.0625 67.113281 M 168.75 70.101562 C 168.410156 70.964844 168.195312 71.761719 168.269531 71.878906 C 168.460938 72.183594 169.484375 69.671875 169.421875 69.054688 C 169.390625 68.769531 169.089844 69.242188 168.75 70.101562 M 157.1875 69.628906 C 156.769531 70.878906 156.164062 72.628906 155.839844 73.519531 C 155.515625 74.40625 155.371094 75.066406 155.515625 74.980469 C 155.867188 74.773438 158.261719 67.855469 158.082031 67.574219 C 158.003906 67.453125 157.601562 68.378906 157.1875 69.628906 M 163.058594 72.15625 C 162.460938 73.710938 162.03125 75.070312 162.097656 75.171875 C 162.277344 75.453125 164.253906 70.410156 164.191406 69.828125 C 164.160156 69.550781 163.652344 70.597656 163.058594 72.15625 M 161.058594 72.144531 C 160.511719 73.429688 160.121094 74.574219 160.191406 74.683594 C 160.265625 74.796875 160.769531 73.832031 161.3125 72.539062 C 161.859375 71.246094 162.246094 70.101562 162.179688 69.996094 C 162.113281 69.890625 161.609375 70.855469 161.058594 72.144531 M 159.238281 76.347656 C 158.949219 76.898438 158.785156 77.457031 158.871094 77.59375 C 159.171875 78.066406 159.550781 77.507812 159.65625 76.429688 L 159.761719 75.351562 L 159.238281 76.347656 M 161.253906 76.765625 C 161.148438 77.128906 160.683594 77.878906 160.21875 78.4375 C 159.566406 79.222656 159.324219 79.320312 159.160156 78.867188 C 159 78.421875 158.898438 78.484375 158.757812 79.109375 C 158.652344 79.566406 158.777344 79.988281 159.035156 80.042969 C 159.621094 80.171875 161.507812 77.613281 161.472656 76.746094 C 161.449219 76.214844 161.414062 76.214844 161.253906 76.765625 " fill-opacity="1" fill-rule="evenodd"/></g></g></g></g><g clip-path="url(#12eec172e1)"><g clip-path="url(#85cd91d7b2)"><g clip-path="url(#751db7d122)"><g clip-path="url(#362cb4a858)"><path fill="#eaeaea" d="M 134.171875 11.210938 C 133.648438 11.464844 132.949219 12.089844 132.617188 12.597656 C 131.515625 14.304688 128.734375 21.480469 126.203125 29.148438 C 124.824219 33.332031 123.34375 37.589844 122.910156 38.613281 C 122.175781 40.347656 122.046875 40.464844 121.0625 40.246094 C 119.546875 39.914062 118.136719 41.179688 117.671875 43.289062 C 117.398438 44.542969 117.519531 45.558594 118.167969 47.460938 C 119.003906 49.902344 119.003906 50.039062 118.207031 52.566406 C 117.753906 53.992188 116.722656 56.882812 115.914062 58.984375 C 114.398438 62.929688 114.246094 63.980469 115.164062 64.179688 C 115.988281 64.363281 116.957031 62.464844 118.457031 57.722656 C 119.214844 55.328125 120.003906 53.167969 120.210938 52.925781 C 120.472656 52.613281 120.964844 53.269531 121.867188 55.132812 C 122.570312 56.589844 123.34375 57.828125 123.589844 57.882812 C 124.226562 58.023438 125.257812 56.503906 125.609375 54.898438 C 125.871094 53.722656 125.691406 53.175781 124.4375 51.261719 C 122.859375 48.863281 122.0625 46.5 122.507812 45.558594 C 122.660156 45.242188 124.015625 44.679688 125.523438 44.308594 C 131.253906 42.902344 134.75 39.800781 135.765625 35.21875 C 136.953125 29.847656 137.261719 16.660156 136.285156 12.957031 C 135.722656 10.816406 135.453125 10.59375 134.171875 11.210938 M 117.332031 9.6875 C 117.019531 9.929688 115.917969 12.441406 114.886719 15.273438 C 113.851562 18.105469 112.601562 21.46875 112.109375 22.75 C 111.617188 24.027344 109.941406 28.378906 108.390625 32.414062 C 106.835938 36.449219 105.222656 40.632812 104.800781 41.714844 C 103.265625 45.65625 98.78125 56.503906 97.3125 59.820312 C 95.660156 63.566406 95.125 65.429688 95.582031 65.875 C 95.976562 66.253906 96.742188 65.542969 101.054688 60.78125 C 103.035156 58.597656 104.785156 56.941406 104.949219 57.097656 C 105.113281 57.257812 105.03125 58.363281 104.769531 59.554688 C 104.230469 62.003906 104.277344 62.949219 104.941406 63.097656 C 105.828125 63.292969 106.679688 61.476562 107.542969 57.542969 L 108.414062 53.585938 L 111.285156 51.882812 C 114.167969 50.171875 115.152344 49.011719 115.011719 47.484375 C 114.902344 46.3125 114.386719 46.332031 111.949219 47.613281 C 109.285156 49.011719 109.015625 48.628906 110.101562 45.015625 C 113.566406 33.46875 117.996094 15.976562 118.378906 12.320312 C 118.65625 9.65625 118.351562 8.890625 117.332031 9.6875 M 132.59375 17.777344 C 131.800781 18.976562 130.820312 21.363281 128.871094 26.824219 C 128.058594 29.101562 126.695312 32.898438 125.84375 35.257812 C 124.992188 37.621094 124.332031 39.796875 124.378906 40.09375 C 124.441406 40.503906 125.066406 40.464844 126.976562 39.925781 C 130.042969 39.054688 132.40625 37.601562 133.203125 36.089844 C 134.71875 33.222656 134.972656 20.96875 133.585938 17.605469 C 133.261719 16.828125 133.214844 16.835938 132.59375 17.777344 M 98.375 11.480469 C 97.917969 11.457031 97.144531 11.820312 96.65625 12.289062 C 95.886719 13.03125 95.453125 14.4375 93.257812 23.261719 C 91.875 28.828125 90.566406 33.691406 90.355469 34.074219 C 90.140625 34.453125 89.101562 37.980469 88.042969 41.910156 C 86.984375 45.839844 85.375 51.683594 84.46875 54.890625 C 82.632812 61.367188 82.542969 62.945312 84.085938 61.714844 C 85.023438 60.96875 85.53125 59.578125 88.058594 50.84375 C 89.078125 47.328125 90.234375 43.492188 90.632812 42.308594 L 91.355469 40.164062 L 92.890625 40.421875 C 96.335938 40.996094 98.65625 40.765625 100.359375 39.679688 C 102.175781 38.519531 103.703125 36.136719 104.261719 33.597656 C 104.726562 31.492188 104.042969 26.136719 102.480469 19.660156 C 101.117188 14 99.890625 11.558594 98.375 11.480469 M 142.933594 22.367188 C 142.582031 22.832031 142.070312 24.238281 141.792969 25.488281 C 141.519531 26.738281 140.816406 29.148438 140.234375 30.851562 C 139.652344 32.550781 138.632812 35.570312 137.96875 37.5625 C 137.308594 39.550781 136.402344 42.058594 135.957031 43.136719 C 135.507812 44.210938 134.289062 47.347656 133.242188 50.109375 C 132.199219 52.867188 130.203125 57.898438 128.808594 61.285156 C 126.417969 67.097656 125.859375 69.25 126.691406 69.433594 C 126.886719 69.476562 128.386719 68.710938 130.023438 67.726562 C 132.808594 66.050781 133.03125 65.824219 133.601562 64.050781 C 134.332031 61.789062 133.855469 61.453125 131.835938 62.800781 C 131.117188 63.285156 130.378906 63.648438 130.199219 63.605469 C 129.832031 63.527344 130.703125 60.777344 132.445312 56.53125 C 133.085938 54.964844 134.300781 51.824219 135.144531 49.554688 C 135.984375 47.285156 137.03125 44.546875 137.464844 43.46875 C 137.898438 42.386719 138.730469 40.125 139.3125 38.4375 C 139.890625 36.75 141.28125 32.820312 142.394531 29.699219 C 144.421875 24.039062 144.871094 21.804688 144.019531 21.617188 C 143.773438 21.5625 143.28125 21.898438 142.933594 22.367188 M 81.871094 9.3125 C 80.898438 9.933594 80.691406 10.40625 78.636719 16.742188 C 76.773438 22.476562 75.226562 27.019531 73.710938 31.1875 C 73.207031 32.570312 72.253906 35.332031 71.589844 37.320312 C 70.929688 39.308594 69.527344 43.28125 68.476562 46.144531 C 64.746094 56.304688 63.113281 61.125 62.132812 64.871094 C 61.214844 68.378906 61.191406 68.667969 61.835938 68.683594 C 62.300781 68.695312 63.261719 67.691406 64.6875 65.699219 C 67.046875 62.402344 71.457031 57.28125 71.859375 57.371094 C 71.996094 57.402344 72.003906 58.464844 71.871094 59.734375 C 71.621094 62.117188 71.828125 63.964844 72.355469 64.078125 C 72.976562 64.214844 74.28125 62.144531 74.664062 60.402344 C 74.882812 59.40625 75.078125 57.636719 75.101562 56.464844 C 75.148438 53.765625 75.917969 52.75 79.621094 50.492188 C 81.945312 49.070312 82.285156 48.722656 82.558594 47.449219 C 82.730469 46.660156 82.769531 45.734375 82.644531 45.398438 C 82.390625 44.6875 81.796875 44.933594 78.425781 47.144531 C 76.835938 48.191406 76.414062 48.320312 76.210938 47.824219 C 76.058594 47.441406 76.804688 43.648438 78.191406 37.800781 C 80.671875 27.3125 83.5625 12.226562 83.429688 10.449219 C 83.324219 9.042969 82.84375 8.691406 81.871094 9.3125 M 171.011719 33.304688 C 170.71875 33.605469 168.453125 38.796875 164.648438 47.894531 C 160.925781 56.78125 155.1875 67.550781 154.273438 67.351562 C 153.847656 67.257812 154.425781 65.402344 157.273438 57.722656 C 159.085938 52.835938 159.761719 51.132812 163.296875 42.515625 C 165.171875 37.945312 165.5625 36.539062 165.222656 35.601562 C 164.828125 34.507812 164.058594 35.441406 163.035156 38.265625 C 162.507812 39.726562 161.445312 42.617188 160.671875 44.691406 C 159.898438 46.761719 158.617188 50.234375 157.820312 52.410156 C 157.023438 54.582031 155.964844 57.40625 155.46875 58.683594 C 152.671875 65.863281 150.890625 72.59375 151.523438 73.582031 C 151.867188 74.117188 152.910156 73.269531 154.1875 71.40625 L 155.347656 69.722656 L 154.3125 73.332031 C 153.46875 76.277344 153.375 76.929688 153.816406 76.882812 C 154.535156 76.808594 154.996094 75.847656 157.011719 70.210938 C 159.367188 63.617188 162.613281 55.902344 167.15625 46.117188 C 171.007812 37.820312 172.449219 33.726562 171.691406 33.257812 C 171.472656 33.121094 171.167969 33.144531 171.011719 33.304688 M 96.878906 19.550781 C 96.585938 20 95.515625 23.566406 94.507812 27.476562 C 92.890625 33.734375 92.726562 34.664062 93.148438 35.207031 C 94.417969 36.835938 98.960938 36.824219 100.636719 35.183594 C 101.863281 33.988281 101.929688 31.589844 100.871094 26.984375 C 99.972656 23.085938 98.402344 18.957031 97.757812 18.816406 C 97.566406 18.773438 97.171875 19.105469 96.878906 19.550781 M 150.445312 32.015625 C 149.773438 33.304688 149.753906 33.597656 150.253906 34.722656 L 150.820312 35.980469 L 146.960938 41.21875 C 139.113281 51.867188 135.066406 62.042969 137.15625 65.882812 C 138.503906 68.363281 141.511719 67.945312 146.390625 64.59375 C 149.878906 62.199219 151.949219 59.613281 153.933594 55.167969 C 155.917969 50.726562 156.777344 46.683594 156.5625 42.78125 C 156.457031 40.84375 156.632812 38.464844 157.035156 36.46875 C 157.386719 34.707031 157.601562 33.050781 157.511719 32.789062 C 157.28125 32.136719 156.257812 31.980469 155.246094 32.445312 C 154.105469 32.96875 153.3125 32.738281 152.386719 31.609375 C 151.957031 31.089844 151.515625 30.640625 151.402344 30.617188 C 151.289062 30.59375 150.859375 31.222656 150.445312 32.015625 M 70.695312 17.035156 C 68.925781 18.300781 66.558594 20.039062 65.433594 20.894531 C 64.3125 21.753906 63.296875 22.449219 63.183594 22.4375 C 63.070312 22.429688 62.9375 21.84375 62.886719 21.140625 C 62.671875 18.101562 60.28125 19.804688 59.449219 23.59375 C 58.941406 25.90625 58.164062 26.867188 54.128906 30.179688 C 49.09375 34.3125 47.277344 36.214844 46.671875 37.984375 C 45.589844 41.160156 47.589844 41.023438 50.9375 37.691406 C 55.019531 33.625 56.546875 32.296875 56.910156 32.492188 C 57.339844 32.722656 57.613281 31.539062 52.933594 49.828125 C 49.28125 64.09375 49.039062 65.242188 49.484375 65.941406 C 49.933594 66.644531 50.019531 66.664062 50.757812 66.191406 C 51.472656 65.738281 51.859375 64.375 54.726562 52.328125 C 56.472656 44.980469 58.625 36.679688 59.507812 33.886719 L 61.109375 28.804688 L 63.238281 26.75 C 64.410156 25.617188 66.515625 23.984375 67.921875 23.121094 C 72.09375 20.554688 74.109375 18.765625 74.417969 17.367188 C 74.726562 15.96875 74.636719 14.894531 74.207031 14.796875 C 74.046875 14.761719 72.464844 15.769531 70.695312 17.035156 M 174.671875 39.539062 C 173.839844 40.933594 172.238281 44.867188 169.417969 52.4375 C 168.554688 54.753906 168.023438 55.289062 167.054688 54.804688 C 166.402344 54.480469 166.117188 54.589844 165.589844 55.351562 C 164.523438 56.890625 164.339844 58.03125 164.667969 60.976562 L 164.980469 63.757812 L 162.335938 70.128906 C 158.816406 78.609375 158.949219 78.242188 159.175781 78.886719 C 159.324219 79.308594 159.585938 79.199219 160.210938 78.445312 C 160.945312 77.5625 161.628906 75.980469 164.53125 68.441406 C 164.875 67.558594 165.304688 66.898438 165.492188 66.976562 C 165.679688 67.054688 165.964844 68.332031 166.125 69.8125 C 166.289062 71.296875 166.539062 72.691406 166.683594 72.917969 C 167.042969 73.480469 167.851562 72.460938 168.609375 70.480469 C 169.164062 69.035156 169.136719 68.484375 168.394531 65.582031 C 167.460938 61.929688 167.34375 60.546875 167.921875 59.984375 C 168.136719 59.777344 169.324219 59.566406 170.5625 59.519531 C 173.257812 59.414062 175.070312 58.710938 176.230469 57.316406 C 177.398438 55.917969 178.222656 50.496094 178.09375 45.101562 C 177.992188 40.875 177.851562 39.992188 177.105469 38.824219 C 176.339844 37.628906 175.695312 37.816406 174.671875 39.539062 M 112.703125 26.082031 C 112.554688 26.316406 111.808594 28.117188 111.046875 30.085938 C 107.046875 40.4375 104.074219 48.285156 103.203125 50.785156 C 102.667969 52.328125 101.992188 54.144531 101.703125 54.824219 C 100.953125 56.582031 101.613281 56.492188 103.617188 54.554688 C 107.152344 51.140625 106.859375 51.929688 111.507812 33.582031 C 113.277344 26.601562 113.574219 24.738281 112.703125 26.082031 M 175.070312 42.328125 C 174.730469 42.839844 174.082031 44.136719 173.625 45.210938 C 171.453125 50.320312 170.246094 53.320312 169.902344 54.484375 C 169.527344 55.742188 169.539062 55.761719 170.925781 55.984375 C 172.371094 56.214844 174.738281 55.769531 175.378906 55.152344 C 175.96875 54.582031 176.589844 51.195312 176.667969 48.148438 C 176.734375 45.59375 176.234375 41.515625 175.84375 41.429688 C 175.757812 41.410156 175.410156 41.8125 175.070312 42.328125 M 152.265625 38.296875 C 148.382812 40.949219 141.058594 52.160156 139.46875 57.882812 C 138.382812 61.78125 138.59375 62.878906 140.53125 63.476562 C 142.140625 63.972656 144.699219 63.078125 147.367188 61.082031 C 149.597656 59.414062 150.765625 57.972656 152.417969 54.859375 C 155.128906 49.734375 155.667969 42.78125 153.671875 38.605469 L 153.214844 37.644531 L 152.265625 38.296875 M 77.980469 25.332031 C 77.253906 26.367188 70.140625 47.136719 68.046875 54.332031 C 67.433594 56.4375 67.339844 57.175781 67.6875 57.140625 C 67.945312 57.113281 69.402344 55.714844 70.921875 54.035156 L 73.683594 50.980469 L 74.195312 47.597656 C 74.476562 45.738281 75.5 40.546875 76.472656 36.066406 C 78.183594 28.164062 78.730469 24.269531 77.980469 25.332031 M 43.917969 19.683594 C 41.546875 21.316406 40.875 22.628906 36.832031 33.554688 C 32.550781 45.132812 31.910156 47.28125 29.652344 57.597656 C 27.878906 65.707031 27.511719 67.898438 27.710938 69.203125 C 28.101562 71.734375 28.980469 71.75 31.992188 69.292969 C 33.394531 68.148438 35.035156 66.699219 35.636719 66.070312 C 36.238281 65.441406 37.167969 64.683594 37.699219 64.386719 C 39.363281 63.460938 41.488281 61.082031 41.761719 59.839844 C 41.90625 59.1875 41.792969 58.203125 41.515625 57.648438 L 41.011719 56.636719 L 39.699219 57.511719 C 38.980469 57.992188 36.820312 59.570312 34.90625 61.019531 C 30.523438 64.328125 30.328125 64.128906 31.722656 57.785156 C 32.578125 53.90625 32.789062 53.347656 33.589844 52.832031 C 34.085938 52.515625 34.628906 52.285156 34.796875 52.324219 C 34.960938 52.359375 36.242188 51.714844 37.636719 50.894531 C 39.910156 49.554688 40.207031 49.246094 40.5 47.910156 C 40.679688 47.09375 40.660156 46.046875 40.460938 45.589844 C 40.097656 44.765625 40.078125 44.761719 39.054688 45.351562 C 37.558594 46.21875 35.414062 46.707031 35.246094 46.222656 C 34.882812 45.195312 41.601562 27.679688 43.140625 25.628906 C 44.460938 23.871094 46.035156 25.65625 46.199219 29.097656 C 46.351562 32.296875 46.890625 32.785156 48.488281 31.171875 C 50.113281 29.523438 50.328125 26.460938 49.039062 23.246094 C 47.414062 19.179688 46.039062 18.222656 43.917969 19.683594 M 26.523438 24.398438 C 25.191406 25.347656 23.945312 27.789062 23.296875 30.722656 C 21.824219 37.382812 17.765625 44.882812 15.078125 45.902344 C 14.054688 46.289062 13.953125 46.261719 13.171875 45.359375 C 12.191406 44.226562 11.546875 40.886719 11.425781 36.3125 C 11.328125 32.546875 10.738281 31.855469 8.78125 33.191406 C 7.699219 33.933594 7.6875 33.976562 7.382812 37.460938 C 7.210938 39.398438 6.847656 42.417969 6.566406 44.171875 C 6.289062 45.925781 5.859375 48.625 5.617188 50.171875 C 5.371094 51.722656 4.859375 54.839844 4.480469 57.105469 C 2.960938 66.179688 1.851562 74.042969 1.972656 74.894531 C 2.046875 75.433594 2.40625 75.863281 2.867188 75.964844 C 4.007812 76.214844 5.347656 74.140625 5.542969 71.8125 C 5.628906 70.808594 5.9375 68.507812 6.226562 66.707031 C 6.515625 64.902344 6.894531 62.0625 7.0625 60.390625 C 7.660156 54.542969 8.738281 48.65625 9.238281 48.480469 C 9.5 48.386719 10.175781 48.863281 10.746094 49.535156 C 12.265625 51.328125 13.605469 51.46875 15.820312 50.066406 C 16.839844 49.421875 17.984375 48.453125 18.363281 47.90625 C 18.742188 47.363281 19.191406 46.949219 19.355469 46.984375 C 19.675781 47.054688 19.667969 47.175781 18.792969 55.59375 C 17.503906 68.042969 17.46875 74.746094 18.683594 77.355469 C 19.515625 79.144531 19.824219 79.238281 20.855469 78 C 22.121094 76.476562 22.253906 74.871094 21.394531 71.320312 C 20.28125 66.699219 20.269531 63.496094 21.335938 52.855469 C 22.019531 46.078125 23.371094 40.316406 25.742188 34.121094 C 26.851562 31.21875 27.988281 27.84375 28.265625 26.625 C 28.710938 24.660156 28.683594 24.375 28.03125 24.128906 C 27.625 23.976562 26.949219 24.097656 26.523438 24.398438 " fill-opacity="1" fill-rule="evenodd"/></g></g></g></g></svg>